HIERARCHY
ROOT hip
{
	OFFSET 0.000000 0.000000 0.000000 
	CHANNELS 6 Xposition Yposition Zposition Xrotation Zrotation Yrotation
	JOINT abdomen
	{
		OFFSET 0.000000 3.402643 0.000000 
		CHANNELS 3 Xrotation Zrotation Yrotation
		JOINT chest
		{
			OFFSET 0.000000 8.438565 -0.680529 
			CHANNELS 3 Xrotation Zrotation Yrotation
			JOINT neck
			{
				OFFSET 0.000000 10.207942 -0.272212 
				CHANNELS 3 Xrotation Zrotation Yrotation
				JOINT head
				{
					OFFSET 0.000000 3.130431 0.000000 
					CHANNELS 3 Xrotation Zrotation Yrotation
					End Site
					{
						OFFSET 0.000000 3.130435 0.000000 
					}
				}
			}
			JOINT lCollar
			{
				OFFSET 3.470700 6.669187 -0.816635 
				CHANNELS 3 Yrotation Zrotation Xrotation
				JOINT lShldr
				{
					OFFSET 3.198488 0.000000 0.000000 
					CHANNELS 3 Zrotation Yrotation Xrotation
					JOINT lForeArm
					{
						OFFSET 10.139888 0.000000 0.000000 
						CHANNELS 3 Yrotation Zrotation Xrotation
						JOINT lHand
						{
							OFFSET 8.370511 0.000000 0.000000 
							CHANNELS 3 Zrotation Yrotation Xrotation
							End Site
							{
								OFFSET 4.083176 0.000000 0.000000 
							}
						}
					}
				}
			}
			JOINT rCollar
			{
				OFFSET -3.470700 6.669187 -0.816635 
				CHANNELS 3 Yrotation Zrotation Xrotation
				JOINT rShldr
				{
					OFFSET -3.198488 0.000000 0.000000 
					CHANNELS 3 Zrotation Yrotation Xrotation
					JOINT rForeArm
					{
						OFFSET -10.139888 0.000000 0.000000 
						CHANNELS 3 Yrotation Zrotation Xrotation
						JOINT rHand
						{
							OFFSET -8.370511 0.000000 0.000000 
							CHANNELS 3 Zrotation Yrotation Xrotation
							End Site
							{
								OFFSET -4.083176 0.000000 0.000000 
							}
						}
					}
				}
			}
		}
	}
	JOINT lThigh
	{
		OFFSET 5.308129 -1.633274 1.361059 
		CHANNELS 3 Xrotation Zrotation Yrotation
		JOINT lShin
		{
			OFFSET -2.041588 -20.007561 0.000000 
			CHANNELS 3 Xrotation Zrotation Yrotation
			JOINT lFoot
			{
				OFFSET 0.000000 -19.190928 -1.224953 
				CHANNELS 3 Xrotation Yrotation Zrotation
				End Site
				{
					OFFSET 0.000000 -2.449906 4.627600 
				}
			}
		}
	}
	JOINT rThigh
	{
		OFFSET -5.308129 -1.633274 1.361059 
		CHANNELS 3 Xrotation Zrotation Yrotation
		JOINT rShin
		{
			OFFSET 2.041588 -20.007561 0.000000 
			CHANNELS 3 Xrotation Zrotation Yrotation
			JOINT rFoot
			{
				OFFSET 0.000000 -19.190928 -1.224953 
				CHANNELS 3 Xrotation Yrotation Zrotation
				End Site
				{
					OFFSET 0.000000 -2.449906 4.627600 
				}
			}
		}
	}
}
MOTION
Frames: 13
Frame Time: 0.011111
29.689350 50.577568 -109.574257 8.189226 0.657365 3.518266 25.752287 3.095644 -10.069294 -21.832178 3.472018 -3.025410 -18.616829 -1.870338 4.000476 -3.937558 0.902268 7.085775 0.736540 -9.814158 1.078738 -48.801529 -38.238907 60.673042 -90.738152 6.339990 35.601795 8.524705 12.647240 -11.663465 -3.299667 11.850037 1.750699 53.749161 -14.797077 40.792534 85.675537 -2.041293 27.663252 -8.534408 -12.637552 57.962746 18.344624 2.528169 -4.988317 24.185858 -5.625783 -4.097361 19.887133 14.801955 -6.601517 -35.775208 -2.060378 3.295138 48.566925 3.908707 7.031986 -28.519957 -6.417783 -1.300474 
29.644915 50.790474 -108.390480 7.888956 1.357078 3.579556 25.842632 2.418338 -10.464725 -21.724957 3.632309 -3.055801 -18.842422 -2.085273 4.178195 -3.428511 1.166007 7.354571 0.736540 -9.814158 1.078738 -48.671185 -37.299847 61.606071 -90.409119 6.109724 35.396381 8.524705 12.647240 -11.087295 -3.299667 11.850037 1.750699 54.294140 -14.272407 40.427425 85.712212 -1.985229 27.736082 -8.534408 -12.637552 57.728374 18.418213 1.961418 -5.138817 25.669277 -5.561912 -4.276259 19.816429 16.438135 -7.244121 -34.503738 -2.744462 3.607636 45.436726 4.215640 6.697810 -29.231174 -5.724181 -1.124278 
29.629250 50.819889 -107.270638 7.786166 2.528355 3.854793 25.780783 1.439350 -11.252942 -21.295328 3.962885 -3.148762 -19.452171 -2.458633 4.365133 -2.708612 1.157840 7.552043 0.736540 -9.814158 1.078738 -48.932602 -36.384720 62.292999 -90.054825 5.845171 35.173256 8.524705 12.647240 -11.302136 -3.299667 11.850037 1.750699 54.573421 -13.155556 40.126419 85.733765 -1.953908 27.787846 -8.534408 -12.637552 57.191261 18.373129 0.799910 -4.731832 28.522726 -5.411652 -4.673442 19.330889 15.557410 -6.807713 -34.234470 -4.032758 3.733654 43.625191 4.348346 6.487096 -30.119064 -4.633624 -0.822929 
29.568192 50.789516 -106.199722 7.676041 3.333910 3.780190 26.125332 0.380671 -11.170218 -20.659906 3.766817 -2.980448 -20.742346 -1.771556 4.065884 -2.142240 0.286976 7.191152 0.736540 -9.814158 1.078738 -48.484650 -36.184353 63.189079 -89.719421 5.587178 34.942539 8.524705 12.647240 -11.614635 -3.299667 11.850037 1.750699 56.206726 -11.387422 39.021923 85.748940 -1.929627 27.818974 -8.534408 -12.637552 56.693222 17.831228 0.009316 -4.104510 31.788893 -5.235805 -5.105889 17.554621 14.547205 -6.201674 -33.638767 -4.677367 3.970516 41.641006 4.514830 6.280301 -29.826836 -4.293332 -0.574777 
29.560200 50.793991 -105.166504 7.984112 2.690069 3.670964 25.699583 1.238964 -10.511062 -20.913683 3.365915 -2.905432 -20.444956 -1.312850 3.889654 -2.217463 -0.683633 7.061325 0.736540 -9.814158 1.078738 -48.597168 -34.759701 63.880493 -89.434952 5.353431 34.753345 8.524705 12.647240 -12.307996 -3.299667 11.850037 1.750699 56.734097 -10.482109 38.830170 85.795258 -1.858680 27.942204 -8.534408 -12.637552 56.634624 15.918495 0.633948 -3.318289 35.768780 -4.972722 -5.597223 12.958044 12.412058 -5.000620 -33.196220 -3.984122 3.359208 40.149281 4.632003 6.104254 -29.178537 -4.136218 -0.362971 
29.472923 50.788876 -104.098465 7.601667 1.969045 3.257993 26.109169 1.731261 -9.574837 -21.158035 3.146475 -2.716189 -20.586554 -0.320288 3.481549 -1.577940 -2.193286 6.689976 0.736540 -9.814158 1.078738 -48.579445 -33.450790 64.623741 -89.116646 5.077999 34.526016 8.524705 12.647240 -12.991590 -3.299667 11.850037 1.750699 57.626690 -9.361432 38.357677 85.835052 -1.794554 28.045115 -8.534408 -12.637552 56.458847 14.557273 1.483676 -2.319989 40.216049 -4.650636 -6.126269 12.539469 10.628749 -4.523657 -31.794519 -2.841348 2.961142 39.140442 4.710378 5.984239 -28.848137 -4.285623 -0.373459 
29.443832 50.731976 -103.049896 7.712368 2.227404 2.982141 25.960125 1.682401 -9.788007 -21.353884 3.496538 -2.781259 -20.314030 -0.885524 3.798879 -1.635360 -2.007113 7.085911 0.736540 -9.814158 1.078738 -49.485039 -31.370918 64.620369 -88.798752 4.786126 34.281326 8.524705 12.647240 -13.802137 -3.299667 11.850037 1.750699 57.004326 -7.870786 39.080292 85.875534 -1.731560 28.167469 -8.534408 -12.637552 56.410015 12.656376 1.297830 -1.652039 44.952694 -4.267630 -6.667250 11.737019 10.601268 -4.428142 -31.262613 -2.851124 2.826436 38.576950 4.749329 5.909575 -28.577850 -4.736081 -0.515477 
29.462378 50.578846 -102.050591 7.611805 2.981573 2.684268 26.253529 0.907876 -9.730562 -21.471609 3.622461 -2.686733 -19.850693 -1.365225 3.872579 -2.412149 -1.580730 7.066925 0.736540 -9.814158 1.078738 -50.012539 -29.540701 65.067902 -88.516968 4.516335 34.059029 8.524705 12.647240 -14.505260 -3.299667 11.850037 1.750699 57.309582 -6.178631 38.986881 85.925491 -1.652185 28.320395 -8.534408 -12.637552 56.224464 11.018408 0.526728 -1.099811 49.705395 -3.821836 -7.167699 9.730582 12.110212 -4.552799 -30.662485 -3.427284 2.717175 38.516914 4.758993 5.907581 -28.115227 -5.104183 -0.586361 
29.459820 50.365944 -101.049034 7.292556 3.150395 2.234258 26.762945 0.677859 -9.276688 -21.442581 3.630291 -2.538539 -19.957443 -1.106808 3.679592 -2.676454 -2.383838 6.802068 0.736540 -9.814158 1.078738 -50.387096 -28.040827 65.245537 -88.237373 4.229638 33.818359 8.524705 12.647240 -14.827528 -3.299667 11.850037 1.750699 57.646912 -3.998889 38.884033 85.964188 -1.587997 28.442751 -8.534408 -12.637552 55.833843 9.369696 0.390675 -0.394696 54.532162 -3.357825 -7.655260 8.650762 12.019429 -4.411254 -29.559628 -3.329892 2.438331 38.745895 4.729855 5.927431 -27.556877 -5.227655 -0.514593 
29.439680 50.126179 -100.029251 6.645413 2.679736 1.895204 27.619305 1.233360 -8.715852 -21.383875 3.509836 -2.441565 -20.024214 -0.724652 3.490994 -3.108298 -3.230048 6.620257 0.736540 -9.814158 1.078738 -50.661308 -26.657034 64.992538 -87.935219 3.893381 33.541988 8.524705 12.647240 -14.934950 -3.299667 11.850037 1.750699 57.665306 -1.332493 39.202164 85.991745 -1.539966 28.544289 -8.534408 -12.637552 55.589703 7.913247 1.083983 0.271165 59.515770 -2.834130 -8.080589 6.878864 13.059690 -4.325802 -27.766005 -2.558302 2.079428 39.091564 4.710518 5.970338 -26.911324 -5.331030 -0.423190 
29.433926 49.828236 -99.020653 5.890374 1.904715 1.522091 28.600298 2.102515 -7.854316 -21.481207 3.120683 -2.313026 -19.536575 -0.436303 3.301655 -4.154648 -3.586352 6.415195 0.736540 -9.814158 1.078738 -50.644608 -25.006334 64.868439 -87.655327 3.563131 33.257645 8.524705 12.647240 -14.749401 -3.299667 11.850037 1.750699 57.585518 1.326591 39.753937 86.029259 -1.476758 28.695868 -8.534408 -12.637552 55.579937 6.589704 2.187359 0.960677 64.624573 -2.221255 -8.508050 3.505386 13.876261 -3.901205 -25.705786 -1.415960 1.786526 39.546345 4.681037 6.019796 -26.402752 -4.407016 0.079477 
29.428169 49.517826 -97.998322 5.517757 0.932988 0.904600 29.124685 3.037638 -6.585357 -21.520201 2.778118 -2.074832 -19.177452 -0.443170 3.161305 -4.966413 -3.638604 6.171377 0.736540 -9.814158 1.078738 -50.607609 -23.365181 64.983521 -87.391365 3.220176 32.956612 8.524705 12.647240 -14.016981 -3.299667 11.850037 1.750699 57.298565 3.932205 40.165310 86.084946 -1.392337 28.946930 -8.534408 -12.637552 55.892437 4.501325 3.554267 2.196607 69.802727 -1.577323 -8.865862 1.729966 13.406576 -3.549202 -24.127562 -0.078126 1.248034 40.356560 4.619888 6.127675 -26.516991 -2.868691 0.746619 
29.416344 49.243221 -96.975342 5.322369 0.400901 0.223766 29.431917 3.423983 -5.539672 -21.276047 2.600641 -1.840290 -19.013208 -0.625363 3.137763 -5.546590 -3.432720 6.056030 0.736540 -9.814158 1.078738 -50.536095 -22.085001 64.801300 -87.138336 2.865559 32.618790 8.524705 12.647240 -13.636120 -3.299667 11.850037 1.750699 56.985870 7.104964 40.316204 86.130280 -1.324423 29.186682 -8.534408 -12.637552 55.902199 2.067428 4.653479 3.595387 74.914276 -0.914866 -9.181452 0.796443 13.255839 -3.380754 -23.201283 0.849809 1.010756 41.641006 4.514837 6.280304 -27.045591 -2.000828 1.060460 
